<mxfile host="app.diagrams.net" modified="2022-01-28T18:21:53.413Z" agent="5.0 (Windows)" etag="ivsgQVi24jZdW-7-OlNA" version="16.5.1" type="github" pages="3">
  <diagram id="B_9m8_MGN9P_FBoZ8yHJ" name="Page-1">
    <mxGraphModel dx="2534" dy="890" grid="1" gridSize="10" guides="1" tooltips="1" connect="1" arrows="1" fold="1" page="1" pageScale="1" pageWidth="827" pageHeight="1169" math="0" shadow="0">
      <root>
        <mxCell id="0" />
        <mxCell id="1" parent="0" />
        <mxCell id="nxrylhRpso8Z5jgPgGK--4" value="" style="shape=umlActor;verticalLabelPosition=bottom;verticalAlign=top;html=1;outlineConnect=0;fillColor=#dae8fc;strokeColor=#6c8ebf;" parent="1" vertex="1">
          <mxGeometry x="110" y="310" width="20" height="40" as="geometry" />
        </mxCell>
        <mxCell id="nxrylhRpso8Z5jgPgGK--6" value="kitchen" style="rounded=0;whiteSpace=wrap;html=1;fillColor=#f5f5f5;fontColor=#333333;strokeColor=#666666;fontSize=15;fontStyle=1" parent="1" vertex="1">
          <mxGeometry x="90" y="64" width="670" height="30" as="geometry" />
        </mxCell>
        <mxCell id="nxrylhRpso8Z5jgPgGK--12" value="diner" style="ellipse;whiteSpace=wrap;html=1;aspect=fixed;fillColor=#e1d5e7;strokeColor=#9673a6;fontStyle=1;fontColor=#B5739D;" parent="1" vertex="1">
          <mxGeometry x="120" y="360" width="80" height="80" as="geometry" />
        </mxCell>
        <mxCell id="nxrylhRpso8Z5jgPgGK--27" value="" style="shape=umlActor;verticalLabelPosition=bottom;verticalAlign=top;html=1;outlineConnect=0;fillColor=#dae8fc;strokeColor=#6c8ebf;" parent="1" vertex="1">
          <mxGeometry x="150" y="110" width="20" height="40" as="geometry" />
        </mxCell>
        <mxCell id="nxrylhRpso8Z5jgPgGK--29" value="" style="shape=umlActor;verticalLabelPosition=bottom;verticalAlign=top;html=1;outlineConnect=0;fillColor=#dae8fc;strokeColor=#6c8ebf;" parent="1" vertex="1">
          <mxGeometry x="180" y="310" width="20" height="40" as="geometry" />
        </mxCell>
        <mxCell id="nxrylhRpso8Z5jgPgGK--31" value="" style="endArrow=classic;html=1;rounded=0;fontSize=25;strokeColor=#6c8ebf;strokeWidth=2;fillColor=#dae8fc;" parent="1" edge="1">
          <mxGeometry width="50" height="50" relative="1" as="geometry">
            <mxPoint x="119.35" y="120" as="sourcePoint" />
            <mxPoint x="119" y="290" as="targetPoint" />
          </mxGeometry>
        </mxCell>
        <mxCell id="nxrylhRpso8Z5jgPgGK--32" value="" style="endArrow=classic;html=1;rounded=0;fontSize=25;strokeColor=#6c8ebf;strokeWidth=2;fillColor=#dae8fc;" parent="1" edge="1">
          <mxGeometry width="50" height="50" relative="1" as="geometry">
            <mxPoint x="160" y="290" as="sourcePoint" />
            <mxPoint x="160" y="160" as="targetPoint" />
          </mxGeometry>
        </mxCell>
        <mxCell id="nxrylhRpso8Z5jgPgGK--33" value="" style="endArrow=classic;html=1;rounded=0;fontSize=25;strokeColor=#6c8ebf;strokeWidth=2;fillColor=#dae8fc;" parent="1" edge="1">
          <mxGeometry width="50" height="50" relative="1" as="geometry">
            <mxPoint x="190.35000000000002" y="120" as="sourcePoint" />
            <mxPoint x="190" y="290" as="targetPoint" />
          </mxGeometry>
        </mxCell>
        <mxCell id="nxrylhRpso8Z5jgPgGK--34" value="" style="shape=umlActor;verticalLabelPosition=bottom;verticalAlign=top;html=1;outlineConnect=0;fillColor=#dae8fc;strokeColor=#6c8ebf;" parent="1" vertex="1">
          <mxGeometry x="650" y="310" width="20" height="40" as="geometry" />
        </mxCell>
        <mxCell id="nxrylhRpso8Z5jgPgGK--35" value="&lt;font color=&quot;#FFB570&quot;&gt;diner&lt;/font&gt;" style="ellipse;whiteSpace=wrap;html=1;aspect=fixed;fillColor=#fff2cc;strokeColor=#d6b656;fontStyle=1" parent="1" vertex="1">
          <mxGeometry x="660" y="360" width="80" height="80" as="geometry" />
        </mxCell>
        <mxCell id="nxrylhRpso8Z5jgPgGK--36" value="" style="shape=umlActor;verticalLabelPosition=bottom;verticalAlign=top;html=1;outlineConnect=0;fillColor=#dae8fc;strokeColor=#6c8ebf;" parent="1" vertex="1">
          <mxGeometry x="690" y="110" width="20" height="40" as="geometry" />
        </mxCell>
        <mxCell id="nxrylhRpso8Z5jgPgGK--37" value="" style="shape=umlActor;verticalLabelPosition=bottom;verticalAlign=top;html=1;outlineConnect=0;fillColor=#dae8fc;strokeColor=#6c8ebf;" parent="1" vertex="1">
          <mxGeometry x="720" y="310" width="20" height="40" as="geometry" />
        </mxCell>
        <mxCell id="nxrylhRpso8Z5jgPgGK--38" value="" style="endArrow=classic;html=1;rounded=0;fontSize=25;strokeColor=#6c8ebf;strokeWidth=2;fillColor=#dae8fc;" parent="1" edge="1">
          <mxGeometry width="50" height="50" relative="1" as="geometry">
            <mxPoint x="659.3499999999999" y="120" as="sourcePoint" />
            <mxPoint x="659" y="290" as="targetPoint" />
          </mxGeometry>
        </mxCell>
        <mxCell id="nxrylhRpso8Z5jgPgGK--39" value="" style="endArrow=classic;html=1;rounded=0;fontSize=25;strokeColor=#6c8ebf;strokeWidth=2;fillColor=#dae8fc;" parent="1" edge="1">
          <mxGeometry width="50" height="50" relative="1" as="geometry">
            <mxPoint x="700" y="290" as="sourcePoint" />
            <mxPoint x="700" y="160" as="targetPoint" />
          </mxGeometry>
        </mxCell>
        <mxCell id="nxrylhRpso8Z5jgPgGK--40" value="" style="endArrow=classic;html=1;rounded=0;fontSize=25;strokeColor=#6c8ebf;strokeWidth=2;fillColor=#dae8fc;" parent="1" edge="1">
          <mxGeometry width="50" height="50" relative="1" as="geometry">
            <mxPoint x="730.3499999999999" y="120" as="sourcePoint" />
            <mxPoint x="730" y="290" as="targetPoint" />
          </mxGeometry>
        </mxCell>
        <mxCell id="nxrylhRpso8Z5jgPgGK--48" value="" style="shape=umlActor;verticalLabelPosition=bottom;verticalAlign=top;html=1;outlineConnect=0;fillColor=#dae8fc;strokeColor=#6c8ebf;" parent="1" vertex="1">
          <mxGeometry x="380" y="310" width="20" height="40" as="geometry" />
        </mxCell>
        <mxCell id="nxrylhRpso8Z5jgPgGK--49" value="&lt;font color=&quot;#67AB9F&quot;&gt;diner&lt;/font&gt;" style="ellipse;whiteSpace=wrap;html=1;aspect=fixed;fillColor=#d5e8d4;strokeColor=#82b366;fontStyle=1" parent="1" vertex="1">
          <mxGeometry x="390" y="360" width="80" height="80" as="geometry" />
        </mxCell>
        <mxCell id="nxrylhRpso8Z5jgPgGK--50" value="" style="shape=umlActor;verticalLabelPosition=bottom;verticalAlign=top;html=1;outlineConnect=0;fillColor=#dae8fc;strokeColor=#6c8ebf;" parent="1" vertex="1">
          <mxGeometry x="420" y="110" width="20" height="40" as="geometry" />
        </mxCell>
        <mxCell id="nxrylhRpso8Z5jgPgGK--51" value="" style="shape=umlActor;verticalLabelPosition=bottom;verticalAlign=top;html=1;outlineConnect=0;fillColor=#dae8fc;strokeColor=#6c8ebf;" parent="1" vertex="1">
          <mxGeometry x="450" y="310" width="20" height="40" as="geometry" />
        </mxCell>
        <mxCell id="nxrylhRpso8Z5jgPgGK--52" value="" style="endArrow=classic;html=1;rounded=0;fontSize=25;strokeColor=#6c8ebf;strokeWidth=2;fillColor=#dae8fc;" parent="1" edge="1">
          <mxGeometry width="50" height="50" relative="1" as="geometry">
            <mxPoint x="389.3499999999999" y="120" as="sourcePoint" />
            <mxPoint x="389" y="290" as="targetPoint" />
          </mxGeometry>
        </mxCell>
        <mxCell id="nxrylhRpso8Z5jgPgGK--53" value="" style="endArrow=classic;html=1;rounded=0;fontSize=25;strokeColor=#6c8ebf;strokeWidth=2;fillColor=#dae8fc;" parent="1" edge="1">
          <mxGeometry width="50" height="50" relative="1" as="geometry">
            <mxPoint x="430" y="290" as="sourcePoint" />
            <mxPoint x="430" y="160" as="targetPoint" />
          </mxGeometry>
        </mxCell>
        <mxCell id="nxrylhRpso8Z5jgPgGK--54" value="" style="endArrow=classic;html=1;rounded=0;fontSize=25;strokeColor=#6c8ebf;strokeWidth=2;fillColor=#dae8fc;" parent="1" edge="1">
          <mxGeometry width="50" height="50" relative="1" as="geometry">
            <mxPoint x="460.3499999999999" y="120" as="sourcePoint" />
            <mxPoint x="460" y="290" as="targetPoint" />
          </mxGeometry>
        </mxCell>
        <mxCell id="nxrylhRpso8Z5jgPgGK--55" value="" style="shape=umlActor;verticalLabelPosition=bottom;verticalAlign=top;html=1;outlineConnect=0;fillColor=#dae8fc;strokeColor=#6c8ebf;" parent="1" vertex="1">
          <mxGeometry x="115" y="766" width="20" height="40" as="geometry" />
        </mxCell>
        <mxCell id="nxrylhRpso8Z5jgPgGK--57" value="&lt;font color=&quot;#B5739D&quot;&gt;diner&lt;/font&gt;" style="ellipse;whiteSpace=wrap;html=1;aspect=fixed;fillColor=#e1d5e7;strokeColor=#9673a6;fontStyle=1" parent="1" vertex="1">
          <mxGeometry x="125" y="816" width="80" height="80" as="geometry" />
        </mxCell>
        <mxCell id="nxrylhRpso8Z5jgPgGK--58" value="" style="shape=umlActor;verticalLabelPosition=bottom;verticalAlign=top;html=1;outlineConnect=0;fillColor=#dae8fc;strokeColor=#6c8ebf;" parent="1" vertex="1">
          <mxGeometry x="155" y="566" width="20" height="40" as="geometry" />
        </mxCell>
        <mxCell id="nxrylhRpso8Z5jgPgGK--59" value="" style="shape=umlActor;verticalLabelPosition=bottom;verticalAlign=top;html=1;outlineConnect=0;fillColor=#dae8fc;strokeColor=#6c8ebf;" parent="1" vertex="1">
          <mxGeometry x="185" y="766" width="20" height="40" as="geometry" />
        </mxCell>
        <mxCell id="nxrylhRpso8Z5jgPgGK--60" value="" style="endArrow=classic;html=1;rounded=0;fontSize=25;strokeColor=#6c8ebf;strokeWidth=2;fillColor=#dae8fc;" parent="1" edge="1">
          <mxGeometry width="50" height="50" relative="1" as="geometry">
            <mxPoint x="124.34999999999991" y="576" as="sourcePoint" />
            <mxPoint x="124" y="746" as="targetPoint" />
          </mxGeometry>
        </mxCell>
        <mxCell id="nxrylhRpso8Z5jgPgGK--61" value="" style="endArrow=classic;html=1;rounded=0;fontSize=25;strokeColor=#6c8ebf;strokeWidth=2;fillColor=#dae8fc;" parent="1" edge="1">
          <mxGeometry width="50" height="50" relative="1" as="geometry">
            <mxPoint x="165" y="746" as="sourcePoint" />
            <mxPoint x="165" y="616" as="targetPoint" />
          </mxGeometry>
        </mxCell>
        <mxCell id="nxrylhRpso8Z5jgPgGK--62" value="" style="endArrow=classic;html=1;rounded=0;fontSize=25;strokeColor=#6c8ebf;strokeWidth=2;fillColor=#dae8fc;" parent="1" edge="1">
          <mxGeometry width="50" height="50" relative="1" as="geometry">
            <mxPoint x="195.3499999999999" y="576" as="sourcePoint" />
            <mxPoint x="195" y="746" as="targetPoint" />
          </mxGeometry>
        </mxCell>
        <mxCell id="nxrylhRpso8Z5jgPgGK--63" value="" style="shape=umlActor;verticalLabelPosition=bottom;verticalAlign=top;html=1;outlineConnect=0;fillColor=#f5f5f5;strokeColor=#666666;fontColor=#333333;" parent="1" vertex="1">
          <mxGeometry x="460" y="821" width="20" height="40" as="geometry" />
        </mxCell>
        <mxCell id="nxrylhRpso8Z5jgPgGK--64" value="&lt;font color=&quot;#FFB570&quot;&gt;&lt;b&gt;diner&lt;/b&gt;&lt;/font&gt;" style="ellipse;whiteSpace=wrap;html=1;aspect=fixed;fillColor=#fff2cc;strokeColor=#d6b656;" parent="1" vertex="1">
          <mxGeometry x="470" y="871" width="80" height="80" as="geometry" />
        </mxCell>
        <mxCell id="nxrylhRpso8Z5jgPgGK--65" value="" style="shape=umlActor;verticalLabelPosition=bottom;verticalAlign=top;html=1;outlineConnect=0;fillColor=#f5f5f5;strokeColor=#666666;fontColor=#333333;" parent="1" vertex="1">
          <mxGeometry x="500" y="621" width="20" height="40" as="geometry" />
        </mxCell>
        <mxCell id="nxrylhRpso8Z5jgPgGK--66" value="" style="shape=umlActor;verticalLabelPosition=bottom;verticalAlign=top;html=1;outlineConnect=0;fillColor=#f5f5f5;strokeColor=#666666;fontColor=#333333;" parent="1" vertex="1">
          <mxGeometry x="530" y="821" width="20" height="40" as="geometry" />
        </mxCell>
        <mxCell id="nxrylhRpso8Z5jgPgGK--67" value="" style="endArrow=classic;html=1;rounded=0;fontSize=25;strokeColor=#666666;strokeWidth=2;fillColor=#f5f5f5;" parent="1" edge="1">
          <mxGeometry width="50" height="50" relative="1" as="geometry">
            <mxPoint x="469.3499999999999" y="631" as="sourcePoint" />
            <mxPoint x="469" y="801" as="targetPoint" />
          </mxGeometry>
        </mxCell>
        <mxCell id="nxrylhRpso8Z5jgPgGK--68" value="" style="endArrow=classic;html=1;rounded=0;fontSize=25;strokeColor=#666666;strokeWidth=2;fillColor=#f5f5f5;" parent="1" edge="1">
          <mxGeometry width="50" height="50" relative="1" as="geometry">
            <mxPoint x="510" y="801" as="sourcePoint" />
            <mxPoint x="510" y="671" as="targetPoint" />
          </mxGeometry>
        </mxCell>
        <mxCell id="nxrylhRpso8Z5jgPgGK--69" value="" style="endArrow=classic;html=1;rounded=0;fontSize=25;strokeColor=#666666;strokeWidth=2;fillColor=#f5f5f5;" parent="1" edge="1">
          <mxGeometry width="50" height="50" relative="1" as="geometry">
            <mxPoint x="540.3500000000001" y="631" as="sourcePoint" />
            <mxPoint x="540" y="801" as="targetPoint" />
          </mxGeometry>
        </mxCell>
        <mxCell id="nxrylhRpso8Z5jgPgGK--70" value="" style="shape=umlActor;verticalLabelPosition=bottom;verticalAlign=top;html=1;outlineConnect=0;fillColor=#f8cecc;strokeColor=#b85450;" parent="1" vertex="1">
          <mxGeometry x="280" y="885" width="20" height="40" as="geometry" />
        </mxCell>
        <mxCell id="nxrylhRpso8Z5jgPgGK--71" value="&lt;b&gt;&lt;font color=&quot;#67AB9F&quot;&gt;diner&lt;/font&gt;&lt;/b&gt;" style="ellipse;whiteSpace=wrap;html=1;aspect=fixed;fillColor=#d5e8d4;strokeColor=#82b366;" parent="1" vertex="1">
          <mxGeometry x="290" y="935" width="80" height="80" as="geometry" />
        </mxCell>
        <mxCell id="nxrylhRpso8Z5jgPgGK--72" value="" style="shape=umlActor;verticalLabelPosition=bottom;verticalAlign=top;html=1;outlineConnect=0;fillColor=#f8cecc;strokeColor=#b85450;" parent="1" vertex="1">
          <mxGeometry x="320" y="685" width="20" height="40" as="geometry" />
        </mxCell>
        <mxCell id="nxrylhRpso8Z5jgPgGK--73" value="" style="shape=umlActor;verticalLabelPosition=bottom;verticalAlign=top;html=1;outlineConnect=0;fillColor=#f8cecc;strokeColor=#b85450;" parent="1" vertex="1">
          <mxGeometry x="350" y="885" width="20" height="40" as="geometry" />
        </mxCell>
        <mxCell id="nxrylhRpso8Z5jgPgGK--74" value="" style="endArrow=classic;html=1;rounded=0;fontSize=25;strokeColor=#b85450;strokeWidth=2;fillColor=#f8cecc;" parent="1" edge="1">
          <mxGeometry width="50" height="50" relative="1" as="geometry">
            <mxPoint x="289.3499999999999" y="695" as="sourcePoint" />
            <mxPoint x="289" y="865" as="targetPoint" />
          </mxGeometry>
        </mxCell>
        <mxCell id="nxrylhRpso8Z5jgPgGK--75" value="" style="endArrow=classic;html=1;rounded=0;fontSize=25;strokeColor=#b85450;strokeWidth=2;fillColor=#f8cecc;" parent="1" edge="1">
          <mxGeometry width="50" height="50" relative="1" as="geometry">
            <mxPoint x="330" y="865" as="sourcePoint" />
            <mxPoint x="330" y="735" as="targetPoint" />
          </mxGeometry>
        </mxCell>
        <mxCell id="nxrylhRpso8Z5jgPgGK--76" value="" style="endArrow=classic;html=1;rounded=0;fontSize=25;strokeColor=#b85450;strokeWidth=2;fillColor=#f8cecc;" parent="1" edge="1">
          <mxGeometry width="50" height="50" relative="1" as="geometry">
            <mxPoint x="360.3499999999999" y="695" as="sourcePoint" />
            <mxPoint x="360" y="865" as="targetPoint" />
          </mxGeometry>
        </mxCell>
        <mxCell id="nxrylhRpso8Z5jgPgGK--77" value="" style="shape=umlActor;verticalLabelPosition=bottom;verticalAlign=top;html=1;outlineConnect=0;fillColor=#1ba1e2;strokeColor=#006EAF;fontColor=#ffffff;" parent="1" vertex="1">
          <mxGeometry x="640" y="780" width="20" height="40" as="geometry" />
        </mxCell>
        <mxCell id="nxrylhRpso8Z5jgPgGK--78" value="&lt;b&gt;diner&lt;/b&gt;" style="ellipse;whiteSpace=wrap;html=1;aspect=fixed;fillColor=#1ba1e2;strokeColor=#006EAF;fontColor=#ffffff;" parent="1" vertex="1">
          <mxGeometry x="650" y="830" width="80" height="80" as="geometry" />
        </mxCell>
        <mxCell id="nxrylhRpso8Z5jgPgGK--79" value="" style="shape=umlActor;verticalLabelPosition=bottom;verticalAlign=top;html=1;outlineConnect=0;fillColor=#1ba1e2;strokeColor=#006EAF;fontColor=#ffffff;" parent="1" vertex="1">
          <mxGeometry x="680" y="580" width="20" height="40" as="geometry" />
        </mxCell>
        <mxCell id="nxrylhRpso8Z5jgPgGK--80" value="" style="shape=umlActor;verticalLabelPosition=bottom;verticalAlign=top;html=1;outlineConnect=0;fillColor=#1ba1e2;strokeColor=#006EAF;fontColor=#ffffff;" parent="1" vertex="1">
          <mxGeometry x="710" y="780" width="20" height="40" as="geometry" />
        </mxCell>
        <mxCell id="nxrylhRpso8Z5jgPgGK--81" value="" style="endArrow=classic;html=1;rounded=0;fontSize=25;strokeColor=#006EAF;strokeWidth=2;fillColor=#1ba1e2;" parent="1" edge="1">
          <mxGeometry width="50" height="50" relative="1" as="geometry">
            <mxPoint x="649.3499999999999" y="590" as="sourcePoint" />
            <mxPoint x="649" y="760" as="targetPoint" />
          </mxGeometry>
        </mxCell>
        <mxCell id="nxrylhRpso8Z5jgPgGK--82" value="" style="endArrow=classic;html=1;rounded=0;fontSize=25;strokeColor=#006EAF;strokeWidth=2;fillColor=#1ba1e2;" parent="1" edge="1">
          <mxGeometry width="50" height="50" relative="1" as="geometry">
            <mxPoint x="690" y="760" as="sourcePoint" />
            <mxPoint x="690" y="630" as="targetPoint" />
          </mxGeometry>
        </mxCell>
        <mxCell id="nxrylhRpso8Z5jgPgGK--83" value="" style="endArrow=classic;html=1;rounded=0;fontSize=25;strokeColor=#006EAF;strokeWidth=2;fillColor=#1ba1e2;" parent="1" edge="1">
          <mxGeometry width="50" height="50" relative="1" as="geometry">
            <mxPoint x="720.3499999999999" y="590" as="sourcePoint" />
            <mxPoint x="720" y="760" as="targetPoint" />
          </mxGeometry>
        </mxCell>
        <mxCell id="nxrylhRpso8Z5jgPgGK--84" value="" style="shape=curlyBracket;whiteSpace=wrap;html=1;rounded=1;flipH=1;fontSize=25;rotation=-180;" parent="1" vertex="1">
          <mxGeometry x="60" y="120" width="20" height="320" as="geometry" />
        </mxCell>
        <mxCell id="nxrylhRpso8Z5jgPgGK--85" value="time" style="text;html=1;align=center;verticalAlign=middle;resizable=0;points=[];autosize=1;strokeColor=none;fillColor=none;fontSize=16;" parent="1" vertex="1">
          <mxGeometry x="-25" y="280" width="50" height="20" as="geometry" />
        </mxCell>
        <mxCell id="nxrylhRpso8Z5jgPgGK--86" value="" style="shape=curlyBracket;whiteSpace=wrap;html=1;rounded=1;flipH=1;fontSize=25;rotation=-180;" parent="1" vertex="1">
          <mxGeometry x="60" y="580" width="20" height="440" as="geometry" />
        </mxCell>
        <mxCell id="nxrylhRpso8Z5jgPgGK--87" value="time" style="text;html=1;align=center;verticalAlign=middle;resizable=0;points=[];autosize=1;strokeColor=none;fillColor=none;fontSize=16;" parent="1" vertex="1">
          <mxGeometry x="-25" y="750" width="50" height="20" as="geometry" />
        </mxCell>
        <mxCell id="nxrylhRpso8Z5jgPgGK--88" value="kitchen" style="rounded=0;whiteSpace=wrap;html=1;fillColor=#f5f5f5;fontColor=#333333;strokeColor=#666666;fontSize=15;fontStyle=1" parent="1" vertex="1">
          <mxGeometry x="79" y="520" width="670" height="30" as="geometry" />
        </mxCell>
        <mxCell id="nxrylhRpso8Z5jgPgGK--95" value="" style="shape=curlyBracket;whiteSpace=wrap;html=1;rounded=1;flipH=1;fontSize=25;rotation=-180;" parent="1" vertex="1">
          <mxGeometry x="330" y="120" width="20" height="320" as="geometry" />
        </mxCell>
        <mxCell id="nxrylhRpso8Z5jgPgGK--96" value="time" style="text;html=1;align=center;verticalAlign=middle;resizable=0;points=[];autosize=1;strokeColor=none;fillColor=none;fontSize=16;" parent="1" vertex="1">
          <mxGeometry x="245" y="280" width="50" height="20" as="geometry" />
        </mxCell>
        <mxCell id="nxrylhRpso8Z5jgPgGK--97" value="" style="shape=curlyBracket;whiteSpace=wrap;html=1;rounded=1;flipH=1;fontSize=25;rotation=-180;" parent="1" vertex="1">
          <mxGeometry x="605" y="120" width="20" height="320" as="geometry" />
        </mxCell>
        <mxCell id="nxrylhRpso8Z5jgPgGK--98" value="time" style="text;html=1;align=center;verticalAlign=middle;resizable=0;points=[];autosize=1;strokeColor=none;fillColor=none;fontSize=16;" parent="1" vertex="1">
          <mxGeometry x="520" y="280" width="50" height="20" as="geometry" />
        </mxCell>
        <mxCell id="nxrylhRpso8Z5jgPgGK--99" value="" style="shape=umlActor;verticalLabelPosition=bottom;verticalAlign=top;html=1;outlineConnect=0;fillColor=#dae8fc;strokeColor=#6c8ebf;" parent="1" vertex="1">
          <mxGeometry x="-680" y="310" width="20" height="40" as="geometry" />
        </mxCell>
        <mxCell id="nxrylhRpso8Z5jgPgGK--100" value="kitchen" style="rounded=0;whiteSpace=wrap;html=1;fillColor=#f5f5f5;fontColor=#333333;strokeColor=#666666;fontSize=15;fontStyle=1" parent="1" vertex="1">
          <mxGeometry x="-700" y="64" width="670" height="30" as="geometry" />
        </mxCell>
        <mxCell id="nxrylhRpso8Z5jgPgGK--101" value="diner" style="ellipse;whiteSpace=wrap;html=1;aspect=fixed;fillColor=#e1d5e7;strokeColor=#9673a6;fontStyle=1;fontColor=#B5739D;" parent="1" vertex="1">
          <mxGeometry x="-670" y="360" width="80" height="80" as="geometry" />
        </mxCell>
        <mxCell id="nxrylhRpso8Z5jgPgGK--102" value="" style="shape=umlActor;verticalLabelPosition=bottom;verticalAlign=top;html=1;outlineConnect=0;fillColor=#dae8fc;strokeColor=#6c8ebf;" parent="1" vertex="1">
          <mxGeometry x="-640" y="110" width="20" height="40" as="geometry" />
        </mxCell>
        <mxCell id="nxrylhRpso8Z5jgPgGK--103" value="" style="shape=umlActor;verticalLabelPosition=bottom;verticalAlign=top;html=1;outlineConnect=0;fillColor=#dae8fc;strokeColor=#6c8ebf;" parent="1" vertex="1">
          <mxGeometry x="-610" y="310" width="20" height="40" as="geometry" />
        </mxCell>
        <mxCell id="nxrylhRpso8Z5jgPgGK--104" value="" style="endArrow=classic;html=1;rounded=0;fontSize=25;strokeColor=#6c8ebf;strokeWidth=2;fillColor=#dae8fc;" parent="1" edge="1">
          <mxGeometry width="50" height="50" relative="1" as="geometry">
            <mxPoint x="-670.6500000000001" y="120" as="sourcePoint" />
            <mxPoint x="-671.0000000000005" y="290" as="targetPoint" />
          </mxGeometry>
        </mxCell>
        <mxCell id="nxrylhRpso8Z5jgPgGK--105" value="" style="endArrow=classic;html=1;rounded=0;fontSize=25;strokeColor=#6c8ebf;strokeWidth=2;fillColor=#dae8fc;" parent="1" edge="1">
          <mxGeometry width="50" height="50" relative="1" as="geometry">
            <mxPoint x="-629.9999999999995" y="290" as="sourcePoint" />
            <mxPoint x="-629.9999999999995" y="160" as="targetPoint" />
          </mxGeometry>
        </mxCell>
        <mxCell id="nxrylhRpso8Z5jgPgGK--106" value="" style="endArrow=classic;html=1;rounded=0;fontSize=25;strokeColor=#6c8ebf;strokeWidth=2;fillColor=#dae8fc;" parent="1" edge="1">
          <mxGeometry width="50" height="50" relative="1" as="geometry">
            <mxPoint x="-599.6500000000005" y="120" as="sourcePoint" />
            <mxPoint x="-599.9999999999995" y="290" as="targetPoint" />
          </mxGeometry>
        </mxCell>
        <mxCell id="nxrylhRpso8Z5jgPgGK--107" value="" style="shape=umlActor;verticalLabelPosition=bottom;verticalAlign=top;html=1;outlineConnect=0;fillColor=#dae8fc;strokeColor=#6c8ebf;" parent="1" vertex="1">
          <mxGeometry x="-200" y="870" width="20" height="40" as="geometry" />
        </mxCell>
        <mxCell id="nxrylhRpso8Z5jgPgGK--108" value="&lt;font color=&quot;#FFB570&quot;&gt;diner&lt;/font&gt;" style="ellipse;whiteSpace=wrap;html=1;aspect=fixed;fillColor=#fff2cc;strokeColor=#d6b656;fontStyle=1" parent="1" vertex="1">
          <mxGeometry x="-190" y="920" width="80" height="80" as="geometry" />
        </mxCell>
        <mxCell id="nxrylhRpso8Z5jgPgGK--109" value="" style="shape=umlActor;verticalLabelPosition=bottom;verticalAlign=top;html=1;outlineConnect=0;fillColor=#dae8fc;strokeColor=#6c8ebf;" parent="1" vertex="1">
          <mxGeometry x="-160" y="670" width="20" height="40" as="geometry" />
        </mxCell>
        <mxCell id="nxrylhRpso8Z5jgPgGK--110" value="" style="shape=umlActor;verticalLabelPosition=bottom;verticalAlign=top;html=1;outlineConnect=0;fillColor=#dae8fc;strokeColor=#6c8ebf;" parent="1" vertex="1">
          <mxGeometry x="-130" y="870" width="20" height="40" as="geometry" />
        </mxCell>
        <mxCell id="nxrylhRpso8Z5jgPgGK--111" value="" style="endArrow=classic;html=1;rounded=0;fontSize=25;strokeColor=#6c8ebf;strokeWidth=2;fillColor=#dae8fc;" parent="1" edge="1">
          <mxGeometry width="50" height="50" relative="1" as="geometry">
            <mxPoint x="-190.64999999999964" y="680" as="sourcePoint" />
            <mxPoint x="-191" y="850" as="targetPoint" />
          </mxGeometry>
        </mxCell>
        <mxCell id="nxrylhRpso8Z5jgPgGK--112" value="" style="endArrow=classic;html=1;rounded=0;fontSize=25;strokeColor=#6c8ebf;strokeWidth=2;fillColor=#dae8fc;" parent="1" edge="1">
          <mxGeometry width="50" height="50" relative="1" as="geometry">
            <mxPoint x="-150" y="850" as="sourcePoint" />
            <mxPoint x="-150" y="720" as="targetPoint" />
          </mxGeometry>
        </mxCell>
        <mxCell id="nxrylhRpso8Z5jgPgGK--113" value="" style="endArrow=classic;html=1;rounded=0;fontSize=25;strokeColor=#6c8ebf;strokeWidth=2;fillColor=#dae8fc;" parent="1" edge="1">
          <mxGeometry width="50" height="50" relative="1" as="geometry">
            <mxPoint x="-119.64999999999964" y="680" as="sourcePoint" />
            <mxPoint x="-120" y="850" as="targetPoint" />
          </mxGeometry>
        </mxCell>
        <mxCell id="nxrylhRpso8Z5jgPgGK--114" value="" style="shape=umlActor;verticalLabelPosition=bottom;verticalAlign=top;html=1;outlineConnect=0;fillColor=#dae8fc;strokeColor=#6c8ebf;" parent="1" vertex="1">
          <mxGeometry x="-435" y="590" width="20" height="40" as="geometry" />
        </mxCell>
        <mxCell id="nxrylhRpso8Z5jgPgGK--115" value="&lt;font color=&quot;#67AB9F&quot;&gt;diner&lt;/font&gt;" style="ellipse;whiteSpace=wrap;html=1;aspect=fixed;fillColor=#d5e8d4;strokeColor=#82b366;fontStyle=1" parent="1" vertex="1">
          <mxGeometry x="-425" y="640" width="80" height="80" as="geometry" />
        </mxCell>
        <mxCell id="nxrylhRpso8Z5jgPgGK--116" value="" style="shape=umlActor;verticalLabelPosition=bottom;verticalAlign=top;html=1;outlineConnect=0;fillColor=#dae8fc;strokeColor=#6c8ebf;" parent="1" vertex="1">
          <mxGeometry x="-395" y="390" width="20" height="40" as="geometry" />
        </mxCell>
        <mxCell id="nxrylhRpso8Z5jgPgGK--117" value="" style="shape=umlActor;verticalLabelPosition=bottom;verticalAlign=top;html=1;outlineConnect=0;fillColor=#dae8fc;strokeColor=#6c8ebf;" parent="1" vertex="1">
          <mxGeometry x="-365" y="590" width="20" height="40" as="geometry" />
        </mxCell>
        <mxCell id="nxrylhRpso8Z5jgPgGK--118" value="" style="endArrow=classic;html=1;rounded=0;fontSize=25;strokeColor=#6c8ebf;strokeWidth=2;fillColor=#dae8fc;" parent="1" edge="1">
          <mxGeometry width="50" height="50" relative="1" as="geometry">
            <mxPoint x="-425.6500000000001" y="400" as="sourcePoint" />
            <mxPoint x="-426.00000000000045" y="570" as="targetPoint" />
          </mxGeometry>
        </mxCell>
        <mxCell id="nxrylhRpso8Z5jgPgGK--119" value="" style="endArrow=classic;html=1;rounded=0;fontSize=25;strokeColor=#6c8ebf;strokeWidth=2;fillColor=#dae8fc;" parent="1" edge="1">
          <mxGeometry width="50" height="50" relative="1" as="geometry">
            <mxPoint x="-384.99999999999955" y="570" as="sourcePoint" />
            <mxPoint x="-384.99999999999955" y="440" as="targetPoint" />
          </mxGeometry>
        </mxCell>
        <mxCell id="nxrylhRpso8Z5jgPgGK--120" value="" style="endArrow=classic;html=1;rounded=0;fontSize=25;strokeColor=#6c8ebf;strokeWidth=2;fillColor=#dae8fc;" parent="1" edge="1">
          <mxGeometry width="50" height="50" relative="1" as="geometry">
            <mxPoint x="-354.65000000000055" y="400" as="sourcePoint" />
            <mxPoint x="-354.99999999999955" y="570" as="targetPoint" />
          </mxGeometry>
        </mxCell>
        <mxCell id="nxrylhRpso8Z5jgPgGK--121" value="" style="shape=curlyBracket;whiteSpace=wrap;html=1;rounded=1;flipH=1;fontSize=25;rotation=-180;" parent="1" vertex="1">
          <mxGeometry x="-730" y="120" width="20" height="320" as="geometry" />
        </mxCell>
        <mxCell id="nxrylhRpso8Z5jgPgGK--122" value="time" style="text;html=1;align=center;verticalAlign=middle;resizable=0;points=[];autosize=1;strokeColor=none;fillColor=none;fontSize=16;" parent="1" vertex="1">
          <mxGeometry x="-810" y="318" width="50" height="20" as="geometry" />
        </mxCell>
        <mxCell id="nxrylhRpso8Z5jgPgGK--123" value="" style="shape=curlyBracket;whiteSpace=wrap;html=1;rounded=1;flipH=1;fontSize=25;rotation=-180;" parent="1" vertex="1">
          <mxGeometry x="-485" y="400" width="20" height="320" as="geometry" />
        </mxCell>
        <mxCell id="nxrylhRpso8Z5jgPgGK--124" value="time" style="text;html=1;align=center;verticalAlign=middle;resizable=0;points=[];autosize=1;strokeColor=none;fillColor=none;fontSize=16;" parent="1" vertex="1">
          <mxGeometry x="-570" y="560" width="50" height="20" as="geometry" />
        </mxCell>
        <mxCell id="nxrylhRpso8Z5jgPgGK--125" value="" style="shape=curlyBracket;whiteSpace=wrap;html=1;rounded=1;flipH=1;fontSize=25;rotation=-180;" parent="1" vertex="1">
          <mxGeometry x="-245" y="680" width="20" height="320" as="geometry" />
        </mxCell>
        <mxCell id="nxrylhRpso8Z5jgPgGK--126" value="time" style="text;html=1;align=center;verticalAlign=middle;resizable=0;points=[];autosize=1;strokeColor=none;fillColor=none;fontSize=16;" parent="1" vertex="1">
          <mxGeometry x="-330" y="840" width="50" height="20" as="geometry" />
        </mxCell>
      </root>
    </mxGraphModel>
  </diagram>
  <diagram id="8AGhPPvVdEtgWoICzD6j" name="Page-2">
    <mxGraphModel dx="2835" dy="996" grid="1" gridSize="10" guides="1" tooltips="1" connect="1" arrows="1" fold="1" page="1" pageScale="1" pageWidth="827" pageHeight="1169" math="0" shadow="0">
      <root>
        <mxCell id="BuL9LFdeWnkalxIHy_cO-0" />
        <mxCell id="BuL9LFdeWnkalxIHy_cO-1" parent="BuL9LFdeWnkalxIHy_cO-0" />
        <mxCell id="M7_GMboShzzGjQobP0Ev-0" value="" style="shape=umlActor;verticalLabelPosition=bottom;verticalAlign=top;html=1;outlineConnect=0;fillColor=#dae8fc;strokeColor=#6c8ebf;" vertex="1" parent="BuL9LFdeWnkalxIHy_cO-1">
          <mxGeometry x="-680" y="310" width="20" height="40" as="geometry" />
        </mxCell>
        <mxCell id="M7_GMboShzzGjQobP0Ev-1" value="kitchen" style="rounded=0;whiteSpace=wrap;html=1;fillColor=#f5f5f5;fontColor=#333333;strokeColor=#666666;fontSize=15;fontStyle=1" vertex="1" parent="BuL9LFdeWnkalxIHy_cO-1">
          <mxGeometry x="-720" y="60" width="680" height="30" as="geometry" />
        </mxCell>
        <mxCell id="M7_GMboShzzGjQobP0Ev-2" value="diner" style="ellipse;whiteSpace=wrap;html=1;aspect=fixed;fillColor=#e1d5e7;strokeColor=#9673a6;fontStyle=1;fontColor=#B5739D;" vertex="1" parent="BuL9LFdeWnkalxIHy_cO-1">
          <mxGeometry x="-670" y="360" width="80" height="80" as="geometry" />
        </mxCell>
        <mxCell id="M7_GMboShzzGjQobP0Ev-3" value="" style="shape=umlActor;verticalLabelPosition=bottom;verticalAlign=top;html=1;outlineConnect=0;fillColor=#dae8fc;strokeColor=#6c8ebf;" vertex="1" parent="BuL9LFdeWnkalxIHy_cO-1">
          <mxGeometry x="-640" y="110" width="20" height="40" as="geometry" />
        </mxCell>
        <mxCell id="M7_GMboShzzGjQobP0Ev-4" value="" style="shape=umlActor;verticalLabelPosition=bottom;verticalAlign=top;html=1;outlineConnect=0;fillColor=#dae8fc;strokeColor=#6c8ebf;" vertex="1" parent="BuL9LFdeWnkalxIHy_cO-1">
          <mxGeometry x="-610" y="310" width="20" height="40" as="geometry" />
        </mxCell>
        <mxCell id="M7_GMboShzzGjQobP0Ev-5" value="" style="endArrow=classic;html=1;rounded=0;fontSize=25;strokeColor=#6c8ebf;strokeWidth=2;fillColor=#dae8fc;" edge="1" parent="BuL9LFdeWnkalxIHy_cO-1">
          <mxGeometry width="50" height="50" relative="1" as="geometry">
            <mxPoint x="-670.6500000000001" y="120" as="sourcePoint" />
            <mxPoint x="-671.0000000000005" y="290" as="targetPoint" />
          </mxGeometry>
        </mxCell>
        <mxCell id="M7_GMboShzzGjQobP0Ev-6" value="" style="endArrow=classic;html=1;rounded=0;fontSize=25;strokeColor=#6c8ebf;strokeWidth=2;fillColor=#dae8fc;" edge="1" parent="BuL9LFdeWnkalxIHy_cO-1">
          <mxGeometry width="50" height="50" relative="1" as="geometry">
            <mxPoint x="-629.9999999999995" y="290" as="sourcePoint" />
            <mxPoint x="-629.9999999999995" y="160" as="targetPoint" />
          </mxGeometry>
        </mxCell>
        <mxCell id="M7_GMboShzzGjQobP0Ev-7" value="" style="endArrow=classic;html=1;rounded=0;fontSize=25;strokeColor=#6c8ebf;strokeWidth=2;fillColor=#dae8fc;" edge="1" parent="BuL9LFdeWnkalxIHy_cO-1">
          <mxGeometry width="50" height="50" relative="1" as="geometry">
            <mxPoint x="-599.6500000000001" y="120" as="sourcePoint" />
            <mxPoint x="-599.9999999999995" y="290" as="targetPoint" />
          </mxGeometry>
        </mxCell>
        <mxCell id="M7_GMboShzzGjQobP0Ev-8" value="" style="shape=umlActor;verticalLabelPosition=bottom;verticalAlign=top;html=1;outlineConnect=0;fillColor=#dae8fc;strokeColor=#6c8ebf;" vertex="1" parent="BuL9LFdeWnkalxIHy_cO-1">
          <mxGeometry x="-200" y="870" width="20" height="40" as="geometry" />
        </mxCell>
        <mxCell id="M7_GMboShzzGjQobP0Ev-9" value="&lt;font color=&quot;#FFB570&quot;&gt;diner&lt;/font&gt;" style="ellipse;whiteSpace=wrap;html=1;aspect=fixed;fillColor=#fff2cc;strokeColor=#d6b656;fontStyle=1" vertex="1" parent="BuL9LFdeWnkalxIHy_cO-1">
          <mxGeometry x="-190" y="920" width="80" height="80" as="geometry" />
        </mxCell>
        <mxCell id="M7_GMboShzzGjQobP0Ev-10" value="" style="shape=umlActor;verticalLabelPosition=bottom;verticalAlign=top;html=1;outlineConnect=0;fillColor=#dae8fc;strokeColor=#6c8ebf;" vertex="1" parent="BuL9LFdeWnkalxIHy_cO-1">
          <mxGeometry x="-160" y="670" width="20" height="40" as="geometry" />
        </mxCell>
        <mxCell id="M7_GMboShzzGjQobP0Ev-11" value="" style="shape=umlActor;verticalLabelPosition=bottom;verticalAlign=top;html=1;outlineConnect=0;fillColor=#dae8fc;strokeColor=#6c8ebf;" vertex="1" parent="BuL9LFdeWnkalxIHy_cO-1">
          <mxGeometry x="-130" y="870" width="20" height="40" as="geometry" />
        </mxCell>
        <mxCell id="M7_GMboShzzGjQobP0Ev-12" value="" style="endArrow=classic;html=1;rounded=0;fontSize=25;strokeColor=#6c8ebf;strokeWidth=2;fillColor=#dae8fc;" edge="1" parent="BuL9LFdeWnkalxIHy_cO-1">
          <mxGeometry width="50" height="50" relative="1" as="geometry">
            <mxPoint x="-190.64999999999964" y="680" as="sourcePoint" />
            <mxPoint x="-191" y="850" as="targetPoint" />
          </mxGeometry>
        </mxCell>
        <mxCell id="M7_GMboShzzGjQobP0Ev-13" value="" style="endArrow=classic;html=1;rounded=0;fontSize=25;strokeColor=#6c8ebf;strokeWidth=2;fillColor=#dae8fc;" edge="1" parent="BuL9LFdeWnkalxIHy_cO-1">
          <mxGeometry width="50" height="50" relative="1" as="geometry">
            <mxPoint x="-150" y="850" as="sourcePoint" />
            <mxPoint x="-150" y="720" as="targetPoint" />
          </mxGeometry>
        </mxCell>
        <mxCell id="M7_GMboShzzGjQobP0Ev-14" value="" style="endArrow=classic;html=1;rounded=0;fontSize=25;strokeColor=#6c8ebf;strokeWidth=2;fillColor=#dae8fc;" edge="1" parent="BuL9LFdeWnkalxIHy_cO-1">
          <mxGeometry width="50" height="50" relative="1" as="geometry">
            <mxPoint x="-119.64999999999964" y="680" as="sourcePoint" />
            <mxPoint x="-120" y="850" as="targetPoint" />
          </mxGeometry>
        </mxCell>
        <mxCell id="M7_GMboShzzGjQobP0Ev-15" value="" style="shape=umlActor;verticalLabelPosition=bottom;verticalAlign=top;html=1;outlineConnect=0;fillColor=#dae8fc;strokeColor=#6c8ebf;" vertex="1" parent="BuL9LFdeWnkalxIHy_cO-1">
          <mxGeometry x="-435" y="590" width="20" height="40" as="geometry" />
        </mxCell>
        <mxCell id="M7_GMboShzzGjQobP0Ev-16" value="&lt;font color=&quot;#67AB9F&quot;&gt;diner&lt;/font&gt;" style="ellipse;whiteSpace=wrap;html=1;aspect=fixed;fillColor=#d5e8d4;strokeColor=#82b366;fontStyle=1" vertex="1" parent="BuL9LFdeWnkalxIHy_cO-1">
          <mxGeometry x="-425" y="640" width="80" height="80" as="geometry" />
        </mxCell>
        <mxCell id="M7_GMboShzzGjQobP0Ev-17" value="" style="shape=umlActor;verticalLabelPosition=bottom;verticalAlign=top;html=1;outlineConnect=0;fillColor=#dae8fc;strokeColor=#6c8ebf;" vertex="1" parent="BuL9LFdeWnkalxIHy_cO-1">
          <mxGeometry x="-395" y="390" width="20" height="40" as="geometry" />
        </mxCell>
        <mxCell id="M7_GMboShzzGjQobP0Ev-18" value="" style="shape=umlActor;verticalLabelPosition=bottom;verticalAlign=top;html=1;outlineConnect=0;fillColor=#dae8fc;strokeColor=#6c8ebf;" vertex="1" parent="BuL9LFdeWnkalxIHy_cO-1">
          <mxGeometry x="-365" y="590" width="20" height="40" as="geometry" />
        </mxCell>
        <mxCell id="M7_GMboShzzGjQobP0Ev-19" value="" style="endArrow=classic;html=1;rounded=0;fontSize=25;strokeColor=#6c8ebf;strokeWidth=2;fillColor=#dae8fc;" edge="1" parent="BuL9LFdeWnkalxIHy_cO-1">
          <mxGeometry width="50" height="50" relative="1" as="geometry">
            <mxPoint x="-425.6500000000001" y="400" as="sourcePoint" />
            <mxPoint x="-426.00000000000045" y="570" as="targetPoint" />
          </mxGeometry>
        </mxCell>
        <mxCell id="M7_GMboShzzGjQobP0Ev-20" value="" style="endArrow=classic;html=1;rounded=0;fontSize=25;strokeColor=#6c8ebf;strokeWidth=2;fillColor=#dae8fc;" edge="1" parent="BuL9LFdeWnkalxIHy_cO-1">
          <mxGeometry width="50" height="50" relative="1" as="geometry">
            <mxPoint x="-384.99999999999955" y="570" as="sourcePoint" />
            <mxPoint x="-384.99999999999955" y="440" as="targetPoint" />
          </mxGeometry>
        </mxCell>
        <mxCell id="M7_GMboShzzGjQobP0Ev-21" value="" style="endArrow=classic;html=1;rounded=0;fontSize=25;strokeColor=#6c8ebf;strokeWidth=2;fillColor=#dae8fc;" edge="1" parent="BuL9LFdeWnkalxIHy_cO-1">
          <mxGeometry width="50" height="50" relative="1" as="geometry">
            <mxPoint x="-354.6500000000001" y="400" as="sourcePoint" />
            <mxPoint x="-354.99999999999955" y="570" as="targetPoint" />
          </mxGeometry>
        </mxCell>
        <mxCell id="M7_GMboShzzGjQobP0Ev-22" value="" style="shape=curlyBracket;whiteSpace=wrap;html=1;rounded=1;flipH=1;fontSize=25;rotation=-180;" vertex="1" parent="BuL9LFdeWnkalxIHy_cO-1">
          <mxGeometry x="-730" y="120" width="20" height="320" as="geometry" />
        </mxCell>
        <mxCell id="M7_GMboShzzGjQobP0Ev-23" value="time" style="text;html=1;align=center;verticalAlign=middle;resizable=0;points=[];autosize=1;strokeColor=none;fillColor=none;fontSize=16;" vertex="1" parent="BuL9LFdeWnkalxIHy_cO-1">
          <mxGeometry x="-810" y="318" width="50" height="20" as="geometry" />
        </mxCell>
        <mxCell id="M7_GMboShzzGjQobP0Ev-24" value="" style="shape=curlyBracket;whiteSpace=wrap;html=1;rounded=1;flipH=1;fontSize=25;rotation=-180;" vertex="1" parent="BuL9LFdeWnkalxIHy_cO-1">
          <mxGeometry x="-485" y="400" width="20" height="320" as="geometry" />
        </mxCell>
        <mxCell id="M7_GMboShzzGjQobP0Ev-25" value="time" style="text;html=1;align=center;verticalAlign=middle;resizable=0;points=[];autosize=1;strokeColor=none;fillColor=none;fontSize=16;" vertex="1" parent="BuL9LFdeWnkalxIHy_cO-1">
          <mxGeometry x="-570" y="560" width="50" height="20" as="geometry" />
        </mxCell>
        <mxCell id="M7_GMboShzzGjQobP0Ev-26" value="" style="shape=curlyBracket;whiteSpace=wrap;html=1;rounded=1;flipH=1;fontSize=25;rotation=-180;" vertex="1" parent="BuL9LFdeWnkalxIHy_cO-1">
          <mxGeometry x="-245" y="680" width="20" height="320" as="geometry" />
        </mxCell>
        <mxCell id="M7_GMboShzzGjQobP0Ev-27" value="time" style="text;html=1;align=center;verticalAlign=middle;resizable=0;points=[];autosize=1;strokeColor=none;fillColor=none;fontSize=16;" vertex="1" parent="BuL9LFdeWnkalxIHy_cO-1">
          <mxGeometry x="-330" y="840" width="50" height="20" as="geometry" />
        </mxCell>
      </root>
    </mxGraphModel>
  </diagram>
  <diagram id="fDfPnDASjjIwqLVuwqhE" name="Page-3">
    <mxGraphModel dx="1707" dy="847" grid="1" gridSize="10" guides="1" tooltips="1" connect="1" arrows="1" fold="1" page="1" pageScale="1" pageWidth="827" pageHeight="1169" math="0" shadow="0">
      <root>
        <mxCell id="8DX7qwdcviXpmVcRJMtp-0" />
        <mxCell id="8DX7qwdcviXpmVcRJMtp-1" parent="8DX7qwdcviXpmVcRJMtp-0" />
        <mxCell id="NkCuynljoMP-77O50YQT-0" value="" style="shape=umlActor;verticalLabelPosition=bottom;verticalAlign=top;html=1;outlineConnect=0;fillColor=#dae8fc;strokeColor=#6c8ebf;" vertex="1" parent="8DX7qwdcviXpmVcRJMtp-1">
          <mxGeometry x="160" y="286" width="20" height="40" as="geometry" />
        </mxCell>
        <mxCell id="NkCuynljoMP-77O50YQT-1" value="&lt;font color=&quot;#B5739D&quot;&gt;diner&lt;/font&gt;" style="ellipse;whiteSpace=wrap;html=1;aspect=fixed;fillColor=#e1d5e7;strokeColor=#9673a6;fontStyle=1" vertex="1" parent="8DX7qwdcviXpmVcRJMtp-1">
          <mxGeometry x="170" y="336" width="80" height="80" as="geometry" />
        </mxCell>
        <mxCell id="NkCuynljoMP-77O50YQT-2" value="" style="shape=umlActor;verticalLabelPosition=bottom;verticalAlign=top;html=1;outlineConnect=0;fillColor=#dae8fc;strokeColor=#6c8ebf;" vertex="1" parent="8DX7qwdcviXpmVcRJMtp-1">
          <mxGeometry x="200" y="86" width="20" height="40" as="geometry" />
        </mxCell>
        <mxCell id="NkCuynljoMP-77O50YQT-3" value="" style="shape=umlActor;verticalLabelPosition=bottom;verticalAlign=top;html=1;outlineConnect=0;fillColor=#dae8fc;strokeColor=#6c8ebf;" vertex="1" parent="8DX7qwdcviXpmVcRJMtp-1">
          <mxGeometry x="230" y="286" width="20" height="40" as="geometry" />
        </mxCell>
        <mxCell id="NkCuynljoMP-77O50YQT-4" value="" style="endArrow=classic;html=1;rounded=0;fontSize=25;strokeColor=#6c8ebf;strokeWidth=2;fillColor=#dae8fc;" edge="1" parent="8DX7qwdcviXpmVcRJMtp-1">
          <mxGeometry width="50" height="50" relative="1" as="geometry">
            <mxPoint x="169.3499999999999" y="96" as="sourcePoint" />
            <mxPoint x="169" y="266" as="targetPoint" />
          </mxGeometry>
        </mxCell>
        <mxCell id="NkCuynljoMP-77O50YQT-5" value="" style="endArrow=classic;html=1;rounded=0;fontSize=25;strokeColor=#6c8ebf;strokeWidth=2;fillColor=#dae8fc;" edge="1" parent="8DX7qwdcviXpmVcRJMtp-1">
          <mxGeometry width="50" height="50" relative="1" as="geometry">
            <mxPoint x="210" y="266" as="sourcePoint" />
            <mxPoint x="210" y="136" as="targetPoint" />
          </mxGeometry>
        </mxCell>
        <mxCell id="NkCuynljoMP-77O50YQT-6" value="" style="endArrow=classic;html=1;rounded=0;fontSize=25;strokeColor=#6c8ebf;strokeWidth=2;fillColor=#dae8fc;" edge="1" parent="8DX7qwdcviXpmVcRJMtp-1">
          <mxGeometry width="50" height="50" relative="1" as="geometry">
            <mxPoint x="240.3499999999999" y="96" as="sourcePoint" />
            <mxPoint x="240" y="266" as="targetPoint" />
          </mxGeometry>
        </mxCell>
        <mxCell id="NkCuynljoMP-77O50YQT-7" value="" style="shape=umlActor;verticalLabelPosition=bottom;verticalAlign=top;html=1;outlineConnect=0;fillColor=#f5f5f5;strokeColor=#666666;fontColor=#333333;" vertex="1" parent="8DX7qwdcviXpmVcRJMtp-1">
          <mxGeometry x="505" y="341" width="20" height="40" as="geometry" />
        </mxCell>
        <mxCell id="NkCuynljoMP-77O50YQT-8" value="&lt;font color=&quot;#FFB570&quot;&gt;&lt;b&gt;diner&lt;/b&gt;&lt;/font&gt;" style="ellipse;whiteSpace=wrap;html=1;aspect=fixed;fillColor=#fff2cc;strokeColor=#d6b656;" vertex="1" parent="8DX7qwdcviXpmVcRJMtp-1">
          <mxGeometry x="515" y="391" width="80" height="80" as="geometry" />
        </mxCell>
        <mxCell id="NkCuynljoMP-77O50YQT-9" value="" style="shape=umlActor;verticalLabelPosition=bottom;verticalAlign=top;html=1;outlineConnect=0;fillColor=#f5f5f5;strokeColor=#666666;fontColor=#333333;" vertex="1" parent="8DX7qwdcviXpmVcRJMtp-1">
          <mxGeometry x="545" y="141" width="20" height="40" as="geometry" />
        </mxCell>
        <mxCell id="NkCuynljoMP-77O50YQT-10" value="" style="shape=umlActor;verticalLabelPosition=bottom;verticalAlign=top;html=1;outlineConnect=0;fillColor=#f5f5f5;strokeColor=#666666;fontColor=#333333;" vertex="1" parent="8DX7qwdcviXpmVcRJMtp-1">
          <mxGeometry x="575" y="341" width="20" height="40" as="geometry" />
        </mxCell>
        <mxCell id="NkCuynljoMP-77O50YQT-11" value="" style="endArrow=classic;html=1;rounded=0;fontSize=25;strokeColor=#666666;strokeWidth=2;fillColor=#f5f5f5;" edge="1" parent="8DX7qwdcviXpmVcRJMtp-1">
          <mxGeometry width="50" height="50" relative="1" as="geometry">
            <mxPoint x="514.3499999999999" y="151" as="sourcePoint" />
            <mxPoint x="514" y="321" as="targetPoint" />
          </mxGeometry>
        </mxCell>
        <mxCell id="NkCuynljoMP-77O50YQT-12" value="" style="endArrow=classic;html=1;rounded=0;fontSize=25;strokeColor=#666666;strokeWidth=2;fillColor=#f5f5f5;" edge="1" parent="8DX7qwdcviXpmVcRJMtp-1">
          <mxGeometry width="50" height="50" relative="1" as="geometry">
            <mxPoint x="555" y="321" as="sourcePoint" />
            <mxPoint x="555" y="191" as="targetPoint" />
          </mxGeometry>
        </mxCell>
        <mxCell id="NkCuynljoMP-77O50YQT-13" value="" style="endArrow=classic;html=1;rounded=0;fontSize=25;strokeColor=#666666;strokeWidth=2;fillColor=#f5f5f5;" edge="1" parent="8DX7qwdcviXpmVcRJMtp-1">
          <mxGeometry width="50" height="50" relative="1" as="geometry">
            <mxPoint x="585.3500000000004" y="151" as="sourcePoint" />
            <mxPoint x="585" y="321" as="targetPoint" />
          </mxGeometry>
        </mxCell>
        <mxCell id="NkCuynljoMP-77O50YQT-14" value="" style="shape=umlActor;verticalLabelPosition=bottom;verticalAlign=top;html=1;outlineConnect=0;fillColor=#f8cecc;strokeColor=#b85450;" vertex="1" parent="8DX7qwdcviXpmVcRJMtp-1">
          <mxGeometry x="325" y="405" width="20" height="40" as="geometry" />
        </mxCell>
        <mxCell id="NkCuynljoMP-77O50YQT-15" value="&lt;b&gt;&lt;font color=&quot;#67AB9F&quot;&gt;diner&lt;/font&gt;&lt;/b&gt;" style="ellipse;whiteSpace=wrap;html=1;aspect=fixed;fillColor=#d5e8d4;strokeColor=#82b366;" vertex="1" parent="8DX7qwdcviXpmVcRJMtp-1">
          <mxGeometry x="335" y="455" width="80" height="80" as="geometry" />
        </mxCell>
        <mxCell id="NkCuynljoMP-77O50YQT-16" value="" style="shape=umlActor;verticalLabelPosition=bottom;verticalAlign=top;html=1;outlineConnect=0;fillColor=#f8cecc;strokeColor=#b85450;" vertex="1" parent="8DX7qwdcviXpmVcRJMtp-1">
          <mxGeometry x="365" y="205" width="20" height="40" as="geometry" />
        </mxCell>
        <mxCell id="NkCuynljoMP-77O50YQT-17" value="" style="shape=umlActor;verticalLabelPosition=bottom;verticalAlign=top;html=1;outlineConnect=0;fillColor=#f8cecc;strokeColor=#b85450;" vertex="1" parent="8DX7qwdcviXpmVcRJMtp-1">
          <mxGeometry x="395" y="405" width="20" height="40" as="geometry" />
        </mxCell>
        <mxCell id="NkCuynljoMP-77O50YQT-18" value="" style="endArrow=classic;html=1;rounded=0;fontSize=25;strokeColor=#b85450;strokeWidth=2;fillColor=#f8cecc;" edge="1" parent="8DX7qwdcviXpmVcRJMtp-1">
          <mxGeometry width="50" height="50" relative="1" as="geometry">
            <mxPoint x="334.3499999999999" y="215" as="sourcePoint" />
            <mxPoint x="334" y="385" as="targetPoint" />
          </mxGeometry>
        </mxCell>
        <mxCell id="NkCuynljoMP-77O50YQT-19" value="" style="endArrow=classic;html=1;rounded=0;fontSize=25;strokeColor=#b85450;strokeWidth=2;fillColor=#f8cecc;" edge="1" parent="8DX7qwdcviXpmVcRJMtp-1">
          <mxGeometry width="50" height="50" relative="1" as="geometry">
            <mxPoint x="375" y="385" as="sourcePoint" />
            <mxPoint x="375" y="255" as="targetPoint" />
          </mxGeometry>
        </mxCell>
        <mxCell id="NkCuynljoMP-77O50YQT-20" value="" style="endArrow=classic;html=1;rounded=0;fontSize=25;strokeColor=#b85450;strokeWidth=2;fillColor=#f8cecc;" edge="1" parent="8DX7qwdcviXpmVcRJMtp-1">
          <mxGeometry width="50" height="50" relative="1" as="geometry">
            <mxPoint x="405.3499999999999" y="215" as="sourcePoint" />
            <mxPoint x="405" y="385" as="targetPoint" />
          </mxGeometry>
        </mxCell>
        <mxCell id="NkCuynljoMP-77O50YQT-21" value="" style="shape=umlActor;verticalLabelPosition=bottom;verticalAlign=top;html=1;outlineConnect=0;fillColor=#1ba1e2;strokeColor=#006EAF;fontColor=#ffffff;" vertex="1" parent="8DX7qwdcviXpmVcRJMtp-1">
          <mxGeometry x="685" y="300" width="20" height="40" as="geometry" />
        </mxCell>
        <mxCell id="NkCuynljoMP-77O50YQT-22" value="&lt;b&gt;diner&lt;/b&gt;" style="ellipse;whiteSpace=wrap;html=1;aspect=fixed;fillColor=#1ba1e2;strokeColor=#006EAF;fontColor=#ffffff;" vertex="1" parent="8DX7qwdcviXpmVcRJMtp-1">
          <mxGeometry x="695" y="350" width="80" height="80" as="geometry" />
        </mxCell>
        <mxCell id="NkCuynljoMP-77O50YQT-23" value="" style="shape=umlActor;verticalLabelPosition=bottom;verticalAlign=top;html=1;outlineConnect=0;fillColor=#1ba1e2;strokeColor=#006EAF;fontColor=#ffffff;" vertex="1" parent="8DX7qwdcviXpmVcRJMtp-1">
          <mxGeometry x="725" y="100" width="20" height="40" as="geometry" />
        </mxCell>
        <mxCell id="NkCuynljoMP-77O50YQT-24" value="" style="shape=umlActor;verticalLabelPosition=bottom;verticalAlign=top;html=1;outlineConnect=0;fillColor=#1ba1e2;strokeColor=#006EAF;fontColor=#ffffff;" vertex="1" parent="8DX7qwdcviXpmVcRJMtp-1">
          <mxGeometry x="755" y="300" width="20" height="40" as="geometry" />
        </mxCell>
        <mxCell id="NkCuynljoMP-77O50YQT-25" value="" style="endArrow=classic;html=1;rounded=0;fontSize=25;strokeColor=#006EAF;strokeWidth=2;fillColor=#1ba1e2;" edge="1" parent="8DX7qwdcviXpmVcRJMtp-1">
          <mxGeometry width="50" height="50" relative="1" as="geometry">
            <mxPoint x="694.3499999999999" y="110" as="sourcePoint" />
            <mxPoint x="694" y="280" as="targetPoint" />
          </mxGeometry>
        </mxCell>
        <mxCell id="NkCuynljoMP-77O50YQT-26" value="" style="endArrow=classic;html=1;rounded=0;fontSize=25;strokeColor=#006EAF;strokeWidth=2;fillColor=#1ba1e2;" edge="1" parent="8DX7qwdcviXpmVcRJMtp-1">
          <mxGeometry width="50" height="50" relative="1" as="geometry">
            <mxPoint x="735" y="280" as="sourcePoint" />
            <mxPoint x="735" y="150" as="targetPoint" />
          </mxGeometry>
        </mxCell>
        <mxCell id="NkCuynljoMP-77O50YQT-27" value="" style="endArrow=classic;html=1;rounded=0;fontSize=25;strokeColor=#006EAF;strokeWidth=2;fillColor=#1ba1e2;" edge="1" parent="8DX7qwdcviXpmVcRJMtp-1">
          <mxGeometry width="50" height="50" relative="1" as="geometry">
            <mxPoint x="765.3499999999999" y="110" as="sourcePoint" />
            <mxPoint x="765" y="280" as="targetPoint" />
          </mxGeometry>
        </mxCell>
        <mxCell id="NkCuynljoMP-77O50YQT-28" value="" style="shape=curlyBracket;whiteSpace=wrap;html=1;rounded=1;flipH=1;fontSize=25;rotation=-180;" vertex="1" parent="8DX7qwdcviXpmVcRJMtp-1">
          <mxGeometry x="105" y="100" width="20" height="440" as="geometry" />
        </mxCell>
        <mxCell id="NkCuynljoMP-77O50YQT-29" value="time" style="text;html=1;align=center;verticalAlign=middle;resizable=0;points=[];autosize=1;strokeColor=none;fillColor=none;fontSize=16;" vertex="1" parent="8DX7qwdcviXpmVcRJMtp-1">
          <mxGeometry x="20" y="270" width="50" height="20" as="geometry" />
        </mxCell>
        <mxCell id="NkCuynljoMP-77O50YQT-30" value="kitchen" style="rounded=0;whiteSpace=wrap;html=1;fillColor=#f5f5f5;fontColor=#333333;strokeColor=#666666;fontSize=15;fontStyle=1" vertex="1" parent="8DX7qwdcviXpmVcRJMtp-1">
          <mxGeometry x="124" y="40" width="670" height="30" as="geometry" />
        </mxCell>
      </root>
    </mxGraphModel>
  </diagram>
</mxfile>
